<svg width="314" height="44" viewBox="0 0 314 44" fill="none" xmlns="http://www.w3.org/2000/svg">
<path d="M188.348 33.596C186.56 33.596 184.914 33.1702 183.409 32.3186C181.905 31.467 180.712 30.2321 179.832 28.6141C178.952 26.996 178.512 25.0799 178.512 22.8657V22.3121C178.512 20.0979 178.952 18.196 179.832 16.6063C180.712 14.9883 181.89 13.7534 183.366 12.9018C184.871 12.0218 186.532 11.5818 188.348 11.5818C189.796 11.5818 191.017 11.7805 192.01 12.1779C193.032 12.547 193.855 13.0296 194.48 13.6257C195.105 14.1934 195.587 14.8037 195.928 15.4567H196.524V3.19343H199.888V32.9999H196.609V29.5508H196.013C195.445 30.6012 194.565 31.5379 193.373 32.3612C192.181 33.1844 190.506 33.596 188.348 33.596ZM189.243 30.6154C191.4 30.6154 193.146 29.9341 194.48 28.5715C195.843 27.1805 196.524 25.2502 196.524 22.7805V22.3973C196.524 19.9276 195.843 18.0115 194.48 16.6489C193.146 15.2579 191.4 14.5625 189.243 14.5625C187.114 14.5625 185.354 15.2579 183.963 16.6489C182.6 18.0115 181.919 19.9276 181.919 22.3973V22.7805C181.919 25.2502 182.6 27.1805 183.963 28.5715C185.354 29.9341 187.114 30.6154 189.243 30.6154ZM204.467 32.9999L213.665 3.19343H219.967L229.164 32.9999H225.46L223.16 25.4631H210.471L208.172 32.9999H204.467ZM211.366 22.227H222.224L217.114 5.36504H216.518L211.366 22.227ZM233.758 41.516V12.1779H237.037V15.627H237.633C238.172 14.5767 239.038 13.6399 240.23 12.8167C241.451 11.9934 243.14 11.5818 245.297 11.5818C247.086 11.5818 248.718 12.0218 250.194 12.9018C251.699 13.7534 252.891 14.9741 253.771 16.5637C254.679 18.1534 255.133 20.0696 255.133 22.3121V22.8657C255.133 25.0799 254.693 26.996 253.813 28.6141C252.933 30.2321 251.741 31.467 250.237 32.3186C248.761 33.1702 247.114 33.596 245.297 33.596C243.85 33.596 242.615 33.3973 241.593 32.9999C240.599 32.6308 239.79 32.1483 239.166 31.5521C238.541 30.956 238.059 30.3457 237.718 29.7212H237.122V41.516H233.758ZM244.403 30.6154C246.561 30.6154 248.306 29.9341 249.641 28.5715C251.003 27.1805 251.684 25.2502 251.684 22.7805V22.3973C251.684 19.9276 251.003 18.0115 249.641 16.6489C248.306 15.2579 246.561 14.5625 244.403 14.5625C242.274 14.5625 240.514 15.2579 239.123 16.6489C237.761 18.0115 237.079 19.9276 237.079 22.3973V22.7805C237.079 25.2502 237.761 27.1805 239.123 28.5715C240.514 29.9341 242.274 30.6154 244.403 30.6154ZM261.161 41.516V12.1779H264.44V15.627H265.036C265.575 14.5767 266.441 13.6399 267.633 12.8167C268.854 11.9934 270.543 11.5818 272.7 11.5818C274.489 11.5818 276.121 12.0218 277.597 12.9018C279.102 13.7534 280.294 14.9741 281.174 16.5637C282.082 18.1534 282.536 20.0696 282.536 22.3121V22.8657C282.536 25.0799 282.096 26.996 281.216 28.6141C280.336 30.2321 279.144 31.467 277.64 32.3186C276.164 33.1702 274.517 33.596 272.7 33.596C271.253 33.596 270.018 33.3973 268.996 32.9999C268.002 32.6308 267.193 32.1483 266.569 31.5521C265.944 30.956 265.462 30.3457 265.121 29.7212H264.525V41.516H261.161ZM271.806 30.6154C273.964 30.6154 275.709 29.9341 277.044 28.5715C278.406 27.1805 279.087 25.2502 279.087 22.7805V22.3973C279.087 19.9276 278.406 18.0115 277.044 16.6489C275.709 15.2579 273.964 14.5625 271.806 14.5625C269.677 14.5625 267.917 15.2579 266.526 16.6489C265.164 18.0115 264.482 19.9276 264.482 22.3973V22.7805C264.482 25.2502 265.164 27.1805 266.526 28.5715C267.917 29.9341 269.677 30.6154 271.806 30.6154ZM296.952 33.596C294.369 33.596 292.183 32.9999 290.395 31.8076C288.635 30.6154 287.57 28.7276 287.201 26.1444L290.395 25.4205C290.622 26.7831 291.048 27.8618 291.672 28.6567C292.297 29.4231 293.063 29.9767 293.972 30.3173C294.908 30.6296 295.902 30.7857 296.952 30.7857C298.514 30.7857 299.748 30.4734 300.657 29.8489C301.565 29.2244 302.019 28.387 302.019 27.3367C302.019 26.2579 301.579 25.5057 300.699 25.0799C299.848 24.6257 298.67 24.2567 297.165 23.9728L295.419 23.6747C294.085 23.4476 292.865 23.0928 291.757 22.6102C290.65 22.1276 289.77 21.4747 289.117 20.6515C288.465 19.8283 288.138 18.7921 288.138 17.5431C288.138 15.6696 288.862 14.2076 290.31 13.1573C291.757 12.107 293.674 11.5818 296.058 11.5818C298.414 11.5818 300.316 12.1212 301.764 13.1999C303.24 14.2502 304.191 15.7405 304.617 17.6708L301.466 18.4799C301.21 16.9754 300.6 15.925 299.635 15.3289C298.67 14.7044 297.477 14.3921 296.058 14.3921C294.639 14.3921 293.517 14.6618 292.694 15.2012C291.871 15.7121 291.459 16.4786 291.459 17.5005C291.459 18.4941 291.843 19.2321 292.609 19.7147C293.404 20.1689 294.454 20.5096 295.76 20.7367L297.506 21.0347C298.982 21.2902 300.302 21.645 301.466 22.0992C302.658 22.525 303.595 23.1496 304.276 23.9728C304.986 24.796 305.341 25.8747 305.341 27.2089C305.341 29.2528 304.574 30.8283 303.041 31.9354C301.537 33.0425 299.507 33.596 296.952 33.596Z" fill="white"/>
<path d="M14.1368 33.596C10.4465 33.596 7.52258 32.5741 5.36516 30.5302C3.20774 28.4579 2.12903 25.5057 2.12903 21.6734V14.5199C2.12903 10.6876 3.20774 7.74956 5.36516 5.70568C7.52258 3.63343 10.4465 2.5973 14.1368 2.5973C17.7987 2.5973 20.6232 3.60504 22.6103 5.62052C24.6258 7.60762 25.6335 10.347 25.6335 13.8386V14.0941H20.0981V13.6683C20.0981 11.9083 19.6013 10.4605 18.6077 9.32504C17.6426 8.18956 16.1523 7.62181 14.1368 7.62181C12.1497 7.62181 10.5884 8.23214 9.4529 9.45278C8.31742 10.6734 7.74968 12.3341 7.74968 14.4347V21.7586C7.74968 23.8308 8.31742 25.4915 9.4529 26.7405C10.5884 27.9612 12.1497 28.5715 14.1368 28.5715C16.1523 28.5715 17.6426 28.0037 18.6077 26.8683C19.6013 25.7044 20.0981 24.2567 20.0981 22.525V21.7586H25.6335V22.3547C25.6335 25.8463 24.6258 28.5999 22.6103 30.6154C20.6232 32.6025 17.7987 33.596 14.1368 33.596ZM40.4326 33.596C38.332 33.596 36.4443 33.1702 34.7694 32.3186C33.0946 31.467 31.7746 30.2321 30.8094 28.6141C29.8443 26.996 29.3617 25.0515 29.3617 22.7805V22.0992C29.3617 19.8283 29.8443 17.8837 30.8094 16.2657C31.7746 14.6476 33.0946 13.4128 34.7694 12.5612C36.4443 11.7096 38.332 11.2837 40.4326 11.2837C42.5333 11.2837 44.421 11.7096 46.0959 12.5612C47.7707 13.4128 49.0907 14.6476 50.0559 16.2657C51.021 17.8837 51.5036 19.8283 51.5036 22.0992V22.7805C51.5036 25.0515 51.021 26.996 50.0559 28.6141C49.0907 30.2321 47.7707 31.467 46.0959 32.3186C44.421 33.1702 42.5333 33.596 40.4326 33.596ZM40.4326 28.827C42.0791 28.827 43.4417 28.3018 44.5204 27.2515C45.5991 26.1728 46.1385 24.6399 46.1385 22.6528V22.227C46.1385 20.2399 45.5991 18.7212 44.5204 17.6708C43.4701 16.5921 42.1075 16.0528 40.4326 16.0528C38.7862 16.0528 37.4236 16.5921 36.3449 17.6708C35.2662 18.7212 34.7268 20.2399 34.7268 22.227V22.6528C34.7268 24.6399 35.2662 26.1728 36.3449 27.2515C37.4236 28.3018 38.7862 28.827 40.4326 28.827ZM56.4559 32.9999V11.8799H61.7359V14.2644H62.5024C62.8147 13.4128 63.3256 12.7883 64.0353 12.3908C64.7734 11.9934 65.625 11.7947 66.5901 11.7947H69.145V16.5637H66.505C65.1424 16.5637 64.0211 16.9328 63.1411 17.6708C62.2611 18.3805 61.8211 19.4876 61.8211 20.9921V32.9999H56.4559ZM81.1061 33.596C79.4313 33.596 77.8558 33.1844 76.3797 32.3612C74.9319 31.5096 73.7681 30.2747 72.8881 28.6567C72.0081 27.0386 71.5681 25.0799 71.5681 22.7805V22.0992C71.5681 19.7999 72.0081 17.8412 72.8881 16.2231C73.7681 14.605 74.9319 13.3844 76.3797 12.5612C77.8274 11.7096 79.4029 11.2837 81.1061 11.2837C82.3836 11.2837 83.4481 11.4399 84.2997 11.7521C85.1797 12.036 85.8894 12.405 86.4287 12.8592C86.9681 13.3134 87.3797 13.796 87.6636 14.307H88.43V3.19343H93.7952V32.9999H88.5152V30.445H87.7487C87.2661 31.2399 86.5139 31.9637 85.4919 32.6167C84.4984 33.2696 83.0365 33.596 81.1061 33.596ZM82.7242 28.9121C84.3707 28.9121 85.7474 28.387 86.8545 27.3367C87.9616 26.2579 88.5152 24.6967 88.5152 22.6528V22.227C88.5152 20.1831 87.9616 18.636 86.8545 17.5857C85.7758 16.507 84.399 15.9676 82.7242 15.9676C81.0778 15.9676 79.701 16.507 78.5939 17.5857C77.4868 18.636 76.9332 20.1831 76.9332 22.227V22.6528C76.9332 24.6967 77.4868 26.2579 78.5939 27.3367C79.701 28.387 81.0778 28.9121 82.7242 28.9121ZM99.7435 32.9999V11.8799H105.109V32.9999H99.7435ZM102.426 9.4102C101.461 9.4102 100.638 9.09794 99.9564 8.47343C99.3035 7.84891 98.977 7.02568 98.977 6.00375C98.977 4.98181 99.3035 4.15859 99.9564 3.53407C100.638 2.90956 101.461 2.5973 102.426 2.5973C103.42 2.5973 104.243 2.90956 104.896 3.53407C105.549 4.15859 105.875 4.98181 105.875 6.00375C105.875 7.02568 105.549 7.84891 104.896 8.47343C104.243 9.09794 103.42 9.4102 102.426 9.4102ZM119.102 33.3405C117.455 33.3405 116.008 32.9715 114.758 32.2334C113.538 31.467 112.587 30.4167 111.906 29.0825C111.224 27.7483 110.884 26.2154 110.884 24.4837V11.8799H116.249V24.0579C116.249 25.6476 116.632 26.8399 117.398 27.6347C118.193 28.4296 119.315 28.827 120.762 28.827C122.409 28.827 123.686 28.2876 124.595 27.2089C125.503 26.1018 125.957 24.5689 125.957 22.6102V11.8799H131.322V32.9999H126.042V30.2321H125.276C124.935 30.9418 124.297 31.6373 123.36 32.3186C122.423 32.9999 121.004 33.3405 119.102 33.3405ZM137.293 32.9999V11.8799H142.573V14.1792H143.339C143.708 13.4696 144.318 12.8592 145.17 12.3483C146.022 11.8089 147.143 11.5392 148.534 11.5392C150.038 11.5392 151.245 11.8373 152.153 12.4334C153.062 13.0012 153.757 13.7534 154.24 14.6902H155.006C155.489 13.7818 156.17 13.0296 157.05 12.4334C157.93 11.8373 159.179 11.5392 160.797 11.5392C162.103 11.5392 163.281 11.8231 164.331 12.3908C165.41 12.9302 166.262 13.7676 166.886 14.9031C167.539 16.0102 167.866 17.4154 167.866 19.1186V32.9999H162.5V19.5018C162.5 18.3379 162.202 17.4721 161.606 16.9044C161.01 16.3083 160.173 16.0102 159.094 16.0102C157.873 16.0102 156.922 16.4076 156.241 17.2025C155.588 17.9689 155.262 19.076 155.262 20.5237V32.9999H149.896V19.5018C149.896 18.3379 149.598 17.4721 149.002 16.9044C148.406 16.3083 147.569 16.0102 146.49 16.0102C145.269 16.0102 144.318 16.4076 143.637 17.2025C142.984 17.9689 142.658 19.076 142.658 20.5237V32.9999H137.293Z" fill="white"/>
</svg>
